<?xml version="1.0" encoding="UTF-8"?>
<svg id="Layer_2" data-name="Layer 2" xmlns="http://www.w3.org/2000/svg" viewBox="0 0 52.25 52.25">
  <defs>
    <style>
      .cls-1 {
        fill: #7f7f7f;
        opacity: .5;
      }
    </style>
  </defs>
  <g id="Layer_1-2" data-name="Layer 1">
    <path class="cls-1" d="m26.12,0C11.7,0,0,11.7,0,26.12s11.7,26.12,26.12,26.12,26.12-11.7,26.12-26.12S40.55,0,26.12,0Zm14.96,26.87c-.29.3-.64.45-1.05.45s-.76-.15-1.06-.45l-11.35-11.35v24.8c0,.42-.14.78-.43,1.07-.29.29-.65.43-1.08.43s-.78-.14-1.07-.43-.42-.64-.42-1.07V15.52l-11.35,11.35c-.29.3-.64.45-1.05.45s-.75-.15-1.05-.45c-.3-.3-.45-.65-.45-1.05s.15-.75.45-1.05l13.9-13.9c.16-.16.33-.28.52-.35.19-.07.37-.1.55-.1s.36.03.53.1c.17.07.34.18.5.35l13.9,13.9c.3.3.45.65.45,1.05s-.15.75-.44,1.05Z"/>
  </g>
</svg>