<svg width="385" height="208" viewBox="0 0 385 208" fill="none" xmlns="http://www.w3.org/2000/svg">
<path d="M13.0831 141.295C11.3397 141.295 10.0758 140.859 9.29133 139.987C8.59399 139.115 8.15816 137.852 7.98383 136.195L1.05408 61.5371C0.792577 58.9221 1.40274 56.743 2.88458 54.9996C4.45358 53.1691 6.41483 52.2539 8.76833 52.2539C10.3373 52.2539 11.5577 52.6461 12.4293 53.4306C13.3882 54.2151 13.9547 55.3483 14.1291 56.8301L19.2283 113.183L49.4316 57.0916C51.1749 53.8665 53.6156 52.2539 56.7536 52.2539C59.8916 52.2539 61.5913 53.7793 61.8528 56.8301L65.3831 113.314L98.5936 55.3919C100.424 52.341 102.865 50.8156 105.916 50.8156C107.397 50.8156 108.618 51.2515 109.577 52.1231C110.535 52.9076 111.015 53.9536 111.015 55.2611C111.015 57.0045 110.448 58.835 109.315 60.7526L65.5138 137.111C64.8165 138.418 63.8577 139.464 62.6373 140.249C61.5042 140.946 60.2402 141.295 58.8456 141.295C55.5332 141.295 53.7463 139.726 53.4848 136.588L49.9546 81.4111L20.2743 136.849C19.3155 138.592 18.2695 139.769 17.1363 140.379C16.0032 140.99 14.6521 141.295 13.0831 141.295Z" fill="black"/>
<path d="M118.949 141.295C117.118 141.295 115.68 140.641 114.634 139.333C113.675 137.939 113.37 136.457 113.719 134.888L130.062 58.6606C130.411 56.8301 131.326 55.3047 132.808 54.0844C134.377 52.864 136.033 52.2539 137.777 52.2539C139.346 52.2539 140.653 52.7333 141.699 53.6921C142.745 54.651 143.268 55.8713 143.268 57.3531C143.268 57.9633 143.225 58.3991 143.137 58.6606L135.946 92.6556L184.847 85.9874L190.73 58.6606C191.079 56.8301 192.038 55.3047 193.607 54.0844C195.176 52.864 196.832 52.2539 198.575 52.2539C200.057 52.2539 201.321 52.7769 202.367 53.8229C203.413 54.7817 203.936 55.9585 203.936 57.3531C203.936 57.9633 203.893 58.3991 203.805 58.6606L187.592 134.888C187.244 136.544 186.285 138.026 184.716 139.333C183.147 140.641 181.491 141.295 179.747 141.295C177.83 141.295 176.392 140.641 175.433 139.333C174.474 138.026 174.169 136.544 174.517 134.888L182.101 99.1931L133.07 105.861L126.794 134.888C126.358 136.718 125.399 138.244 123.917 139.464C122.523 140.684 120.866 141.295 118.949 141.295Z" fill="black"/>
<path d="M229.674 141.295C228.105 141.295 226.841 140.815 225.882 139.856C224.923 138.81 224.444 137.546 224.444 136.065C224.444 134.496 225.097 132.883 226.405 131.227L243.01 111.091L224.705 61.7986C224.356 61.0141 224.182 60.2296 224.182 59.4451C224.182 57.3531 224.879 55.6534 226.274 54.3459C227.669 52.9512 229.238 52.2539 230.981 52.2539C232.114 52.2539 233.117 52.559 233.988 53.1691C234.86 53.6921 235.47 54.4766 235.819 55.5226L252.163 99.3239L287.465 55.3919C289.208 53.2999 291.3 52.2539 293.741 52.2539C295.136 52.2539 296.356 52.7333 297.402 53.6921C298.448 54.651 298.971 55.8713 298.971 57.3531C298.971 59.0965 298.187 60.927 296.618 62.8446L235.95 138.026C234.206 140.205 232.114 141.295 229.674 141.295Z" fill="black"/>
<path d="M33.9028 180.928C33.6566 180.928 33.4552 180.849 33.2985 180.693C33.1642 180.536 33.0747 180.323 33.0299 180.055L31.2507 159.778C31.1835 159.219 31.2507 158.793 31.4521 158.502C31.6759 158.211 31.9892 158.066 32.3921 158.066C32.6159 158.066 32.8061 158.133 32.9628 158.267C33.1195 158.402 33.209 158.581 33.2314 158.805L34.8428 176.53L44.3433 158.872C44.6343 158.335 45.026 158.066 45.5183 158.066C45.7421 158.066 45.9212 158.133 46.0555 158.267C46.1897 158.402 46.2681 158.603 46.2905 158.872L47.4319 176.564L57.671 158.704C57.7829 158.502 57.9396 158.346 58.141 158.234C58.3648 158.1 58.5774 158.032 58.7789 158.032C59.025 158.032 59.2153 158.111 59.3496 158.267C59.5062 158.424 59.5846 158.614 59.5846 158.838C59.5846 158.972 59.5062 159.196 59.3496 159.51L47.4654 180.29C47.3535 180.469 47.1969 180.614 46.9954 180.726C46.794 180.861 46.5926 180.928 46.3912 180.928C45.854 180.928 45.5743 180.626 45.5519 180.021L44.4441 162.598L35.0106 180.223C34.7868 180.693 34.4175 180.928 33.9028 180.928Z" fill="black"/>
<path d="M63.3156 161.457C63.0695 161.457 62.8568 161.356 62.6778 161.154C62.5211 160.953 62.4764 160.707 62.5435 160.416L62.8792 159.073C62.9464 158.805 63.0918 158.581 63.3156 158.402C63.5618 158.2 63.8192 158.1 64.0878 158.1C64.3563 158.1 64.5578 158.2 64.6921 158.402C64.8487 158.603 64.8935 158.838 64.8263 159.107L64.5242 160.449C64.4571 160.74 64.3004 160.987 64.0542 161.188C63.8304 161.367 63.5842 161.457 63.3156 161.457ZM58.985 180.928C58.694 180.928 58.4702 180.816 58.3136 180.592C58.1569 180.368 58.101 180.133 58.1457 179.887L61.4357 165.317C61.5252 165.026 61.6819 164.78 61.9057 164.579C62.1519 164.377 62.4204 164.277 62.7114 164.277C62.9576 164.277 63.159 164.355 63.3156 164.512C63.4723 164.646 63.5506 164.836 63.5506 165.082C63.5506 165.194 63.5395 165.284 63.5171 165.351L60.2271 179.887C60.16 180.178 60.0033 180.424 59.7571 180.626C59.5333 180.827 59.2759 180.928 58.985 180.928Z" fill="black"/>
<path d="M66.5581 180.928C66.2896 180.928 66.0658 180.838 65.8867 180.659C65.7077 180.458 65.6517 180.223 65.7189 179.954L70.2174 158.805C70.2845 158.536 70.43 158.312 70.6538 158.133C70.9 157.932 71.1685 157.831 71.4595 157.831C71.7281 157.831 71.9407 157.932 72.0973 158.133C72.254 158.312 72.2988 158.536 72.2316 158.805L67.7667 180.021C67.6995 180.268 67.5429 180.48 67.2967 180.659C67.0505 180.838 66.8043 180.928 66.5581 180.928Z" fill="black"/>
<path d="M73.9018 180.928C73.6332 180.928 73.4094 180.838 73.2304 180.659C73.0513 180.458 72.9954 180.223 73.0625 179.954L77.561 158.805C77.6281 158.536 77.7736 158.312 77.9974 158.133C78.2436 157.932 78.5122 157.831 78.8031 157.831C79.0717 157.831 79.2843 157.932 79.441 158.133C79.5976 158.312 79.6424 158.536 79.5753 158.805L75.1103 180.021C75.0432 180.268 74.8865 180.48 74.6403 180.659C74.3941 180.838 74.148 180.928 73.9018 180.928Z" fill="black"/>
<path d="M85.5761 161.457C85.3299 161.457 85.1173 161.356 84.9382 161.154C84.7816 160.953 84.7368 160.707 84.8039 160.416L85.1396 159.073C85.2068 158.805 85.3523 158.581 85.5761 158.402C85.8223 158.2 86.0796 158.1 86.3482 158.1C86.6168 158.1 86.8182 158.2 86.9525 158.402C87.1091 158.603 87.1539 158.838 87.0868 159.107L86.7846 160.449C86.7175 160.74 86.5608 160.987 86.3146 161.188C86.0908 161.367 85.8446 161.457 85.5761 161.457ZM81.2454 180.928C80.9545 180.928 80.7307 180.816 80.574 180.592C80.4173 180.368 80.3614 180.133 80.4061 179.887L83.6961 165.317C83.7856 165.026 83.9423 164.78 84.1661 164.579C84.4123 164.377 84.6808 164.277 84.9718 164.277C85.218 164.277 85.4194 164.355 85.5761 164.512C85.7327 164.646 85.8111 164.836 85.8111 165.082C85.8111 165.194 85.7999 165.284 85.7775 165.351L82.4875 179.887C82.4204 180.178 82.2637 180.424 82.0175 180.626C81.7937 180.827 81.5364 180.928 81.2454 180.928Z" fill="black"/>
<path d="M93.1492 180.928C91.6049 180.928 90.3628 180.458 89.4228 179.518C88.5052 178.555 88.0464 177.269 88.0464 175.657C88.0464 173.934 88.5164 172.177 89.4564 170.386C90.3964 168.596 91.6497 167.119 93.2163 165.955C94.8054 164.769 96.5063 164.176 98.3191 164.176C99.9082 164.176 101.508 164.635 103.12 165.552L100.031 180.122C99.9417 180.458 99.7739 180.715 99.5277 180.894C99.3039 181.096 99.0577 181.196 98.7891 181.196C98.4982 181.196 98.2744 181.096 98.1177 180.894C97.9834 180.715 97.9498 180.469 98.017 180.156L98.252 179.115C97.491 179.652 96.663 180.089 95.7677 180.424C94.8949 180.76 94.022 180.928 93.1492 180.928ZM93.5185 179.048C94.4137 179.048 95.3313 178.835 96.2713 178.41C97.2113 177.985 97.9834 177.537 98.5877 177.067L100.904 166.761C100.546 166.604 100.098 166.459 99.5613 166.324C99.0241 166.168 98.5094 166.089 98.017 166.089C96.7413 166.089 95.488 166.548 94.257 167.466C93.0485 168.361 92.0526 169.525 91.2692 170.957C90.5083 172.39 90.1278 173.833 90.1278 175.288C90.1278 177.794 91.258 179.048 93.5185 179.048Z" fill="black"/>
<path d="M106.029 180.928C105.761 180.928 105.548 180.838 105.392 180.659C105.235 180.458 105.179 180.223 105.224 179.954L108.379 165.183C108.424 164.914 108.57 164.679 108.816 164.478C109.062 164.277 109.319 164.176 109.588 164.176C109.879 164.176 110.092 164.277 110.226 164.478C110.382 164.679 110.438 164.914 110.394 165.183L109.554 169.178C110.584 167.701 111.792 166.503 113.18 165.586C114.59 164.646 115.866 164.176 117.007 164.176C117.97 164.176 118.775 164.467 119.424 165.049C120.073 165.631 120.398 166.615 120.398 168.003C121.494 166.683 122.613 165.72 123.755 165.116C124.896 164.489 125.959 164.176 126.944 164.176C128.041 164.176 128.891 164.489 129.496 165.116C130.1 165.72 130.402 166.683 130.402 168.003C130.402 168.786 130.312 169.581 130.133 170.386L128.119 179.954C128.052 180.223 127.895 180.458 127.649 180.659C127.403 180.838 127.146 180.928 126.877 180.928C126.608 180.928 126.396 180.838 126.239 180.659C126.082 180.458 126.038 180.223 126.105 179.954L128.153 170.152C128.309 169.502 128.388 168.887 128.388 168.305C128.388 166.806 127.694 166.056 126.306 166.056C125.657 166.056 124.852 166.324 123.889 166.862C122.949 167.376 122.076 168.115 121.271 169.077C120.487 170.017 119.961 171.08 119.693 172.266L118.081 179.954C118.037 180.223 117.891 180.458 117.645 180.659C117.421 180.838 117.164 180.928 116.873 180.928C116.604 180.928 116.392 180.838 116.235 180.659C116.078 180.458 116.022 180.223 116.067 179.954L118.149 170.152C118.305 169.458 118.384 168.82 118.384 168.238C118.384 167.477 118.216 166.929 117.88 166.593C117.567 166.235 117.052 166.056 116.336 166.056C115.597 166.056 114.747 166.38 113.784 167.029C112.822 167.678 111.904 168.473 111.032 169.413C110.226 170.263 109.644 171.058 109.286 171.796C108.928 172.535 108.592 173.587 108.279 174.952L107.238 179.954C107.193 180.223 107.048 180.458 106.802 180.659C106.555 180.838 106.298 180.928 106.029 180.928Z" fill="black"/>
<path d="M145.244 180.928C144.931 180.928 144.696 180.827 144.539 180.626C144.405 180.424 144.36 180.189 144.405 179.921L148.87 159.107C148.937 158.793 149.082 158.547 149.306 158.368C149.53 158.167 149.787 158.066 150.078 158.066C150.391 158.066 150.615 158.178 150.75 158.402C150.906 158.603 150.962 158.849 150.917 159.14L148.769 169.212L163.742 167.197L165.454 159.073C165.498 158.782 165.644 158.547 165.89 158.368C166.159 158.167 166.438 158.066 166.729 158.066C166.953 158.066 167.143 158.133 167.3 158.267C167.457 158.402 167.535 158.592 167.535 158.838C167.535 158.95 167.524 159.04 167.501 159.107L163.07 179.921C163.025 180.189 162.88 180.424 162.634 180.626C162.388 180.827 162.141 180.928 161.895 180.928C161.604 180.928 161.369 180.827 161.19 180.626C161.033 180.424 160.978 180.189 161.022 179.921L163.305 169.312L148.332 171.326L146.486 179.921C146.419 180.189 146.262 180.424 146.016 180.626C145.792 180.827 145.535 180.928 145.244 180.928Z" fill="black"/>
<path d="M183.134 180.928C182.887 180.928 182.675 180.849 182.496 180.693C182.339 180.536 182.261 180.357 182.261 180.156C182.261 179.887 182.395 179.596 182.664 179.283L187.296 173.576L182.194 159.745C182.104 159.498 182.059 159.286 182.059 159.107C182.059 158.793 182.171 158.547 182.395 158.368C182.619 158.167 182.876 158.066 183.167 158.066C183.525 158.066 183.771 158.234 183.906 158.57L188.773 171.729L199.348 158.57C199.483 158.413 199.639 158.29 199.818 158.2C199.997 158.111 200.165 158.066 200.322 158.066C200.546 158.066 200.736 158.144 200.893 158.301C201.072 158.458 201.161 158.648 201.161 158.872C201.161 159.118 201.016 159.431 200.725 159.812L184.074 180.424C183.805 180.76 183.492 180.928 183.134 180.928Z" fill="black"/>
<path d="M202.845 180.928C201.301 180.928 200.059 180.458 199.119 179.518C198.201 178.555 197.742 177.269 197.742 175.657C197.742 173.934 198.212 172.177 199.152 170.386C200.092 168.596 201.345 167.119 202.912 165.955C204.501 164.769 206.202 164.176 208.015 164.176C209.604 164.176 211.204 164.635 212.815 165.552L209.727 180.122C209.637 180.458 209.47 180.715 209.223 180.894C209 181.096 208.753 181.196 208.485 181.196C208.194 181.196 207.97 181.096 207.813 180.894C207.679 180.715 207.646 180.469 207.713 180.156L207.948 179.115C207.187 179.652 206.359 180.089 205.463 180.424C204.591 180.76 203.718 180.928 202.845 180.928ZM203.214 179.048C204.109 179.048 205.027 178.835 205.967 178.41C206.907 177.985 207.679 177.537 208.283 177.067L210.6 166.761C210.242 166.604 209.794 166.459 209.257 166.324C208.72 166.168 208.205 166.089 207.713 166.089C206.437 166.089 205.184 166.548 203.953 167.466C202.744 168.361 201.748 169.525 200.965 170.957C200.204 172.39 199.824 173.833 199.824 175.288C199.824 177.794 200.954 179.048 203.214 179.048Z" fill="black"/>
<path d="M215.759 180.928C215.49 180.928 215.266 180.838 215.087 180.659C214.931 180.458 214.875 180.234 214.919 179.988L218.075 165.116C218.165 164.847 218.321 164.623 218.545 164.444C218.791 164.243 219.049 164.142 219.317 164.142C219.586 164.142 219.798 164.243 219.955 164.444C220.134 164.623 220.19 164.847 220.123 165.116L218.948 170.621C220.022 168.585 221.264 167.007 222.674 165.888C224.107 164.747 225.528 164.176 226.938 164.176C228.191 164.176 229.12 164.534 229.724 165.25C230.351 165.944 230.664 167.029 230.664 168.507C230.664 169.514 230.485 170.89 230.127 172.636C230.261 172.009 229.926 173.531 229.12 177.201L228.549 179.887C228.504 180.178 228.37 180.424 228.146 180.626C227.945 180.827 227.699 180.928 227.408 180.928C227.139 180.928 226.927 180.827 226.77 180.626C226.636 180.424 226.591 180.189 226.636 179.921C227.083 177.727 227.542 175.523 228.012 173.307C228.437 171.338 228.65 169.816 228.65 168.742C228.65 167.712 228.46 167.007 228.079 166.627C227.721 166.246 227.15 166.056 226.367 166.056C225.629 166.056 224.834 166.358 223.984 166.962C223.133 167.544 222.283 168.361 221.432 169.413C220.38 170.733 219.541 171.998 218.914 173.206C218.31 174.393 217.874 175.612 217.605 176.866L216.934 179.854C216.889 180.167 216.755 180.424 216.531 180.626C216.307 180.827 216.05 180.928 215.759 180.928Z" fill="black"/>
<path d="M237.2 187.071C235.835 187.071 234.548 186.915 233.339 186.601C233.116 186.556 232.937 186.456 232.802 186.299C232.668 186.165 232.601 186.008 232.601 185.829C232.601 185.538 232.724 185.258 232.97 184.99C233.216 184.721 233.507 184.587 233.843 184.587C233.977 184.587 234.223 184.632 234.582 184.721C235.544 184.945 236.551 185.057 237.603 185.057C239.371 185.057 240.703 184.621 241.598 183.748C242.493 182.875 243.142 181.666 243.545 180.122L243.981 178.376C243.243 179.182 242.415 179.809 241.497 180.256C240.58 180.682 239.684 180.905 238.811 180.928C237.29 180.928 236.047 180.391 235.085 179.316C234.123 178.242 233.653 176.776 233.675 174.919C233.675 173.128 234.156 171.405 235.119 169.749C236.081 168.07 237.323 166.716 238.845 165.687C240.389 164.657 242.001 164.142 243.679 164.142C244.888 164.142 246.029 164.489 247.103 165.183C247.305 164.243 247.73 163.773 248.379 163.773C248.648 163.773 248.849 163.851 248.983 164.008C249.14 164.165 249.218 164.366 249.218 164.612C249.218 164.747 249.207 164.847 249.185 164.914L245.593 180.223C245.056 182.506 244.037 184.218 242.538 185.359C241.038 186.501 239.259 187.071 237.2 187.071ZM238.979 179.014C239.807 179.014 240.647 178.79 241.497 178.343C242.37 177.873 243.164 177.112 243.881 176.06C244.597 175.008 245.134 173.643 245.492 171.964L246.533 167.197C246.219 166.884 245.772 166.627 245.19 166.425C244.608 166.224 244.004 166.123 243.377 166.123C242.034 166.123 240.747 166.526 239.516 167.332C238.308 168.137 237.334 169.2 236.596 170.521C235.88 171.819 235.521 173.173 235.521 174.583C235.521 175.993 235.835 177.089 236.461 177.873C237.088 178.634 237.927 179.014 238.979 179.014Z" fill="black"/>
<path d="M283.065 157.258C280.914 157.258 279.154 156.574 277.785 155.205C276.612 153.837 276.026 152.174 276.026 150.219C276.026 148.459 276.514 146.895 277.492 145.526C278.665 144.157 280.327 142.593 282.478 140.833L325.007 109.45C335.175 101.628 342.703 95.469 347.592 90.9717C352.676 86.4743 357.173 80.8038 361.084 73.96C365.19 67.1163 367.243 59.2948 367.243 50.4957C367.243 40.7189 364.115 32.6042 357.857 26.1515C351.6 19.6988 341.823 16.4724 328.527 16.4724C319.728 16.4724 312.102 18.33 305.649 22.0452C299.197 25.5649 292.353 30.3555 285.118 36.4171C281.598 39.3501 278.763 40.8167 276.612 40.8167C274.461 40.8167 272.701 40.2301 271.333 39.0568C269.964 37.6881 269.28 36.026 269.28 34.0707C269.28 32.3108 270.062 30.4532 271.626 28.4979C273.19 26.5425 275.341 24.3916 278.079 22.0452C285.314 15.9836 293.428 10.8019 302.423 6.50009C311.418 2.19829 320.901 0.0473938 330.873 0.0473938C347.494 0.0473938 360.595 4.25142 370.176 12.6595C379.757 21.0675 384.548 32.3109 384.548 46.3895C384.548 57.535 382.104 67.7029 377.215 76.8931C372.327 86.0833 366.559 93.9047 359.911 100.357C353.262 106.615 345.148 113.458 335.566 120.889L292.744 152.566C288.442 155.694 285.216 157.258 283.065 157.258ZM262.534 208C260.187 208 258.232 207.218 256.668 205.654C255.299 203.894 254.614 201.743 254.614 199.201C254.614 194.899 256.276 191.086 259.601 187.762C263.12 184.242 266.64 182.483 270.159 182.483C272.506 182.483 274.364 183.265 275.732 184.829C277.297 186.393 278.079 188.446 278.079 190.988C278.079 195.095 276.417 199.005 273.093 202.721C269.964 206.24 266.444 208 262.534 208Z" fill="black"/>
</svg>
